<?xml version="1.0" encoding="UTF-8" standalone="no"?>
<!-- Created with Inkscape (http://www.inkscape.org/) -->

<svg
   xmlns:dc="http://purl.org/dc/elements/1.1/"
   xmlns:cc="http://creativecommons.org/ns#"
   xmlns:rdf="http://www.w3.org/1999/02/22-rdf-syntax-ns#"
   xmlns:svg="http://www.w3.org/2000/svg"
   xmlns="http://www.w3.org/2000/svg"
   version="1.1"
   width="472"
   height="95"
   viewBox="69.5 349.5 472 95"
   id="Layer_1"
   xml:space="preserve"><metadata
   id="metadata3039"><rdf:RDF><cc:Work
       rdf:about=""><dc:format>image/svg+xml</dc:format><dc:type
         rdf:resource="http://purl.org/dc/dcmitype/StillImage" /><dc:title></dc:title></cc:Work></rdf:RDF></metadata><defs
   id="defs3037" />
<path
   d="m 104.78,372.02 -8.26,22.82 h 16.21 l -7.95,-22.82 z M 120.11,416 114.72,400.53 H 94.46 L 88.85,416 h -7.17 l 19.45,-51.64 h 7.899 L 127.77,416 h -7.66 z m 29.94,-29.37 c -1.94,-2.29 -4.33,-3.43 -7.17,-3.43 -3.18,0 -5.75,1.22 -7.72,3.66 -1.971,2.43 -2.95,6.02 -2.95,10.75 0,4.029 0.85,7.409 2.55,10.13 1.7,2.72 4.43,4.08 8.19,4.08 2.909,0 5.31,-1.261 7.18,-3.78 1.88,-2.521 2.82,-6.14 2.82,-10.85 0,-4.76 -0.97,-8.28 -2.9,-10.56 z m 3.04,24.13 c -1.47,2.32 -3.21,4 -5.22,5.03 -2.011,1.03 -4.311,1.55 -6.9,1.55 -4.18,0 -7.8,-1.77 -10.85,-5.3 -3.061,-3.521 -4.591,-8.22 -4.591,-14.08 0,-5.48 1.391,-10.23 4.181,-14.25 2.79,-4.02 6.779,-6.03 11.96,-6.03 2.87,0 5.28,0.61 7.22,1.83 1.12,0.7 2.39,1.93 3.811,3.69 v -19.02 h 6.09 V 416 h -5.7 v -5.24 z m 27.57,-26.54 c -0.32,-0.02 -0.67,-0.04 -1.04,-0.04 -3.19,0 -5.641,1.03 -7.351,3.08 -1.71,2.05 -2.56,4.41 -2.56,7.08 V 416 h -6.33 v -37.65 h 6.01 v 6.5 c 0.49,-1.26 1.7,-2.8 3.62,-4.62 1.92,-1.82 4.14,-2.73 6.65,-2.73 0.109,0 0.31,0.02 0.59,0.04 l 1.439,0.14 v 6.68 c -0.368,-0.07 -0.718,-0.12 -1.028,-0.14 z m 1.48,-19.86 h 6.43 v 7.17 h -6.43 v -7.17 z m 0,14.16 h 6.43 V 416 h -6.43 v -37.48 z m 34.3,18.339 c -0.77,0.501 -1.77,0.91 -2.979,1.24 -1.22,0.33 -2.41,0.561 -3.58,0.7 l -3.83,0.49 c -2.29,0.31 -4.01,0.79 -5.17,1.44 -1.96,1.1 -2.93,2.859 -2.93,5.26 0,1.83 0.659,3.27 2,4.319 1.34,1.051 2.92,1.58 4.75,1.58 2.22,0 4.38,-0.52 6.46,-1.55 3.52,-1.71 5.279,-4.5 5.279,-8.39 v -5.089 l 0,0 z m 6.15,19.951 c -2.18,0 -3.76,-0.77 -4.75,-2.319 -0.51,-0.82 -0.87,-1.98 -1.09,-3.48 -1.28,1.69 -3.141,3.15 -5.55,4.391 -2.41,1.239 -5.07,1.869 -7.98,1.869 -3.49,0 -6.35,-1.06 -8.56,-3.18 -2.221,-2.12 -3.32,-4.77 -3.32,-7.96 0,-3.479 1.09,-6.189 3.27,-8.11 2.181,-1.919 5.04,-3.1 8.57,-3.54 l 10.09,-1.27 c 1.46,-0.18 2.431,-0.79 2.92,-1.82 0.28,-0.57 0.42,-1.38 0.42,-2.44 0,-2.16 -0.76,-3.73 -2.29,-4.71 -1.54,-0.97 -3.729,-1.46 -6.58,-1.46 -3.3,0 -5.64,0.89 -7.02,2.68 -0.77,0.99 -1.27,2.46 -1.51,4.42 h -5.9 c 0.11,-4.65 1.62,-7.89 4.51,-9.71 2.891,-1.83 6.24,-2.74 10.061,-2.74 4.42,0 8.02,0.85 10.78,2.53 2.739,1.69 4.109,4.32 4.109,7.88 v 21.69 c 0,0.66 0.13,1.189 0.4,1.58 0.27,0.399 0.84,0.6 1.71,0.6 0.28,0 0.59,-0.02 0.95,-0.05 0.35,-0.04 0.72,-0.09 1.12,-0.16 v 4.68 c -0.98,0.28 -1.73,0.45 -2.25,0.521 -0.52,0.068 -1.22,0.108 -2.11,0.108 z m 29.77,-24.54 c 0,-2.3 -0.34,-4.15 -1.02,-5.56 -1.13,-2.34 -3.17,-3.51 -6.12,-3.51 -1.5,0 -2.729,0.15 -3.69,0.46 -1.739,0.51 -3.26,1.54 -4.569,3.09 -1.061,1.24 -1.74,2.53 -2.061,3.85 -0.319,1.32 -0.47,3.22 -0.47,5.68 V 416 h -6.33 v -37.65 h 6.01 v 5.34 c 1.78,-2.2 3.67,-3.78 5.66,-4.74 1.99,-0.97 4.21,-1.45 6.641,-1.45 5.35,0 8.96,1.87 10.829,5.59 1.03,2.04 1.551,4.96 1.551,8.76 V 416 h -6.431 v -23.73 l 0,0 z m 44.3,-14.73 c -2.381,-3.18 -5.86,-4.77 -10.431,-4.77 -4.29,0 -7.71,1.53 -10.26,4.57 -2.56,3.05 -3.84,7.61 -3.84,13.68 0,4.57 0.76,8.29 2.28,11.19 l 0.119,-0.03 0.16,-0.319 0.09,0.02 0.141,-0.24 0.189,-0.05 0.15,-0.32 0.19,-0.05 0.04,-0.17 0.189,-0.05 0.03,-0.17 0.3,-0.12 0.03,-0.17 0.189,-0.05 0.04,-0.17 0.29,-0.11 0.04,-0.17 0.19,-0.05 0.029,-0.17 0.301,-0.12 0.029,-0.17 0.4,-0.181 0.03,-0.17 0.399,-0.189 0.04,-0.17 0.5,-0.25 0.03,-0.17 1.229,-0.721 1.36,-0.96 0.17,0.04 0.33,-0.29 0.17,0.04 0.33,-0.29 0.17,0.04 0.12,-0.15 0.28,-0.03 0.02,-0.09 0.17,0.04 0.12,-0.15 0.17,0.03 0.12,-0.15 0.55,-0.06 0.12,-0.15 0.36,-0.02 0.02,-0.08 0.36,-0.01 0.02,-0.09 0.25,0.05 0.021,-0.08 0.17,0.04 0.02,-0.09 0.261,0.06 0.01,-0.09 0.17,0.04 0.021,-0.09 0.529,0.03 0.021,-0.09 0.7,0.06 c 0.81,-0.08 3.149,0.2 4.05,0.69 l 2.17,1.09 -0.01,0.08 0.17,0.04 -0.021,0.08 0.49,0.2 -0.021,0.08 0.181,0.04 -0.021,0.09 0.25,0.05 -0.02,0.09 0.479,0.28 -0.02,0.08 0.17,0.04 -0.02,0.08 0.26,0.06 -0.021,0.08 0.33,0.16 -0.02,0.09 0.17,0.03 0.05,0.189 0.17,0.04 -0.02,0.08 0.17,0.04 -0.021,0.09 0.17,0.03 -0.02,0.09 0.17,0.03 -0.01,0.09 0.17,0.04 0.05,0.18 0.17,0.04 -0.02,0.091 0.319,0.149 -0.02,0.09 0.24,0.141 0.05,0.189 0.32,0.16 0.05,0.19 0.17,0.029 0.05,0.19 0.17,0.04 -0.02,0.08 0.239,0.14 0.051,0.19 h 0.01 c 0.609,-1.33 1.06,-2.53 1.33,-3.58 0.52,-1.9 0.77,-4.11 0.77,-6.64 0.01,-5.808 -1.18,-10.308 -3.55,-13.478 z m -19.04,28.74 c 2.369,1.989 5.21,2.989 8.51,2.989 1.24,0 2.439,-0.159 3.59,-0.46 0.37,-0.1 0.81,-0.25 1.31,-0.43 l -0.3,-0.149 -0.05,-0.19 -0.32,-0.16 -0.05,-0.189 -0.479,-0.28 -0.051,-0.19 -0.17,-0.029 0.021,-0.091 -0.17,-0.029 0.02,-0.09 -0.17,-0.04 0.021,-0.08 -0.181,-0.04 0.021,-0.08 -0.32,-0.16 0.021,-0.09 -0.171,-0.03 0.021,-0.09 -0.17,-0.03 0.01,-0.09 -0.17,-0.04 0.02,-0.08 -0.17,-0.04 0.021,-0.08 -0.17,-0.04 0.02,-0.09 -0.33,-0.149 0.021,-0.091 -0.17,-0.04 0.02,-0.079 -0.26,-0.061 0.02,-0.08 -0.319,-0.16 0.02,-0.08 -0.26,-0.06 0.02,-0.08 -0.17,-0.04 0.021,-0.09 -0.5,-0.19 0.02,-0.09 -0.26,-0.05 0.02,-0.09 -0.25,-0.05 0.021,-0.09 -0.26,-0.051 0.02,-0.09 -0.26,-0.05 0.02,-0.09 -0.26,-0.05 0.021,-0.09 -0.341,-0.07 0.021,-0.08 -0.75,-0.25 0.02,-0.09 -0.43,-0.09 0.02,-0.091 -1.35,-0.369 0.021,-0.091 c -0.4,-0.21 -1.65,-0.35 -1.98,-0.329 l -0.77,-0.171 c -0.73,0.061 -1.58,0.03 -2.261,0.15 l -0.26,-0.06 -0.01,0.09 -0.45,-0.011 -0.02,0.091 -0.36,0.01 -0.01,0.08 -0.261,-0.05 -0.02,0.08 -0.55,0.069 -0.021,0.08 -0.35,0.01 -0.12,0.15 c 0.763,1.291 1.693,2.401 2.793,3.331 z m 35.06,11.1 0.17,0.04 -0.01,0.08 0.17,0.04 -0.021,0.09 0.17,0.03 -0.02,0.09 0.479,0.28 -0.02,0.08 0.25,0.06 -0.01,0.08 0.319,0.16 -0.02,0.09 0.26,0.05 -0.02,0.09 0.17,0.03 -0.021,0.09 0.5,0.19 -0.02,0.09 0.25,0.05 -0.021,0.09 0.261,0.05 -0.021,0.091 0.26,0.05 -0.02,0.09 0.26,0.05 -0.02,0.09 0.66,0.23 c 1.909,1.13 4.909,1.53 6.88,1.2 l 0.529,0.029 0.021,-0.09 0.17,0.04 0.02,-0.09 0.261,0.06 0.01,-0.09 0.55,-0.06 0.021,-0.09 0.17,0.04 0.02,-0.08 0.17,0.029 0.021,-0.079 0.17,0.029 0.02,-0.08 0.17,0.03 0.021,-0.08 0.17,0.04 0.02,-0.09 0.171,0.04 0.119,-0.16 0.36,-0.01 0.02,-0.08 0.271,-0.03 0.12,-0.16 0.17,0.04 0.12,-0.149 0.17,0.029 0.229,-0.22 0.171,0.04 0.229,-0.22 0.17,0.04 0.22,-0.22 0.171,0.04 0.119,-0.16 c 0.19,-0.11 0.37,-0.181 0.591,-0.23 l -0.04,0.17 c -0.25,0.15 -0.28,0.4 -0.48,0.61 l -0.189,0.05 -0.04,0.17 -0.08,-0.02 -0.04,0.17 -0.09,-0.021 -0.03,0.181 -0.19,0.04 -0.16,0.33 -0.189,0.05 -0.04,0.17 -0.08,-0.021 -0.04,0.17 -0.19,0.051 -0.029,0.17 -0.19,0.05 -0.04,0.17 -0.189,0.05 -0.16,0.32 -0.08,-0.021 -0.141,0.24 -0.189,0.05 -0.04,0.17 -0.29,0.12 -0.03,0.17 -0.09,-0.02 -0.14,0.24 -0.19,0.04 -0.04,0.18 -0.29,0.11 -0.029,0.17 -0.301,0.12 -0.029,0.17 -0.4,0.18 -0.04,0.17 -0.29,0.12 -0.14,0.24 -0.601,0.31 -0.04,0.17 -1.22,0.72 -0.85,0.631 -0.17,-0.04 -0.431,0.35 -0.17,-0.03 -0.33,0.28 -0.17,-0.03 -0.233,0.221 -0.17,-0.04 -0.12,0.149 -0.271,0.03 -0.02,0.09 -0.17,-0.04 -0.12,0.15 -0.55,0.069 -0.131,0.15 -0.35,0.01 -0.02,0.09 -0.551,0.061 -0.02,0.08 -0.26,-0.05 -0.011,0.08 -0.17,-0.03 -0.02,0.08 -0.26,-0.05 -0.021,0.079 -0.17,-0.029 -0.02,0.08 -0.891,-0.011 c -1.87,0.21 -4.37,-0.42 -5.95,-1.359 l -0.34,-0.08 0.021,-0.08 -0.261,-0.061 0.021,-0.079 -0.26,-0.061 0.02,-0.08 -0.25,-0.06 0.01,-0.08 -0.25,-0.061 0.021,-0.079 -0.5,-0.2 0.02,-0.08 -0.17,-0.04 0.021,-0.08 -0.261,-0.06 0.021,-0.08 -0.17,-0.04 0.02,-0.08 -0.26,-0.061 0.02,-0.08 -0.479,-0.279 0.02,-0.091 -0.17,-0.039 0.021,-0.08 -0.17,-0.04 0.02,-0.08 -0.33,-0.16 0.021,-0.09 -0.25,-0.05 -0.05,-0.19 -0.17,-0.04 0.02,-0.08 -0.17,-0.04 0.01,-0.08 -0.17,-0.04 0.021,-0.09 -0.17,-0.03 0.02,-0.09 -0.17,-0.029 0.02,-0.091 -0.17,-0.04 -0.05,-0.189 -0.17,-0.03 0.01,-0.09 -0.319,-0.16 -0.051,-0.18 -0.319,-0.16 -0.05,-0.19 -0.171,-0.04 -0.05,-0.189 -0.17,-0.03 0.021,-0.09 -0.17,-0.03 -0.051,-0.189 -0.17,-0.04 -0.05,-0.19 -0.17,-0.04 -0.05,-0.18 -0.32,-0.16 0.01,-0.09 -0.229,-0.14 -0.05,-0.19 -0.17,-0.03 -0.051,-0.189 -0.17,-0.04 -0.12,-0.29 -0.17,-0.04 0.021,-0.08 -0.24,-0.14 -0.05,-0.19 -0.17,-0.04 -0.11,-0.29 -0.17,-0.04 0.01,-0.08 -0.229,-0.14 -0.05,-0.19 -0.171,-0.04 -0.05,-0.189 -0.239,-0.141 -0.12,-0.29 -0.17,-0.04 -0.051,-0.18 -0.172,-0.042 -0.11,-0.29 -0.17,-0.04 -0.12,-0.29 -0.17,-0.04 -0.12,-0.29 -0.17,-0.04 -0.11,-0.29 -0.17,-0.04 -0.05,-0.189 -0.17,-0.03 -0.12,-0.29 -0.17,-0.04 -0.11,-0.29 -0.18,-0.04 v -0.01 c -1.21,0.66 -2.31,1.16 -3.27,1.49 -2.32,0.77 -5.101,1.159 -8.341,1.159 -6.76,0 -12.34,-2.01 -16.75,-6.05 -5.35,-4.85 -8.02,-11.97 -8.02,-21.37 0,-9.47 2.74,-16.63 8.22,-21.48 4.48,-3.96 10.05,-5.94 16.7,-5.94 6.71,0 12.33,2.1 16.88,6.29 5.25,4.85 7.87,11.64 7.87,20.36 0,4.61 -0.561,8.479 -1.69,11.6 -0.91,2.971 -2.25,5.44 -4.02,7.4 l 5.939,5.609 -0.649,0.671 0.02,0.079 0.33,0.16 0.05,0.19 0.32,0.16 0.05,0.18 0.47,0.28 0.051,0.189 0.17,0.04 -0.021,0.08 0.17,0.04 -0.01,0.09 0.17,0.03 -0.02,0.09 0.17,0.03 -0.021,0.09 0.17,0.04 -0.018,0.082 z m 24.93,-5.79 c -0.09,0.11 -0.33,0.47 -0.7,1.05 -0.38,0.591 -0.819,1.101 -1.33,1.551 -1.569,1.399 -3.079,2.369 -4.54,2.88 -1.46,0.52 -3.18,0.77 -5.14,0.77 -5.66,0 -9.47,-2.04 -11.43,-6.109 -1.101,-2.25 -1.65,-5.57 -1.65,-9.95 v -23.1 h 10.271 v 23.1 c 0,2.18 0.26,3.819 0.77,4.92 0.91,1.939 2.69,2.92 5.35,2.92 3.41,0 5.74,-1.39 7,-4.15 0.65,-1.5 0.98,-3.479 0.98,-5.939 v -20.85 h 10.16 V 417 h -9.74 v -5.41 z m 35.98,-23.6 c -1.601,-1.38 -3.58,-2.07 -5.94,-2.07 -2.57,0 -4.57,0.73 -5.979,2.19 -1.421,1.46 -2.311,3.44 -2.671,5.93 h 17.261 c -0.182,-2.66 -1.071,-4.68 -2.671,-6.05 z m 12.739,5.06 c 0.271,1.76 0.381,4.29 0.33,7.601 h -27.91 c 0.16,3.85 1.49,6.54 4.011,8.09 1.529,0.96 3.37,1.439 5.52,1.439 2.29,0 4.141,-0.59 5.57,-1.76 0.78,-0.63 1.46,-1.51 2.06,-2.63 h 10.23 c -0.271,2.27 -1.51,4.58 -3.72,6.92 -3.431,3.73 -8.23,5.59 -14.41,5.59 -5.101,0 -9.601,-1.569 -13.5,-4.71 -3.9,-3.149 -5.851,-8.26 -5.851,-15.35 0,-6.63 1.761,-11.72 5.28,-15.27 3.52,-3.54 8.09,-5.31 13.7,-5.31 3.34,0 6.34,0.6 9.02,1.8 2.67,1.19 4.88,3.08 6.62,5.66 1.571,2.28 2.59,4.92 3.05,7.93 z m 9.96,23.95 -13.739,-38.32 h 11.25 l 7.979,28.27 8.16,-28.27 h 10.75 L 406.86,417 h -10.571 z m 80.771,-28.65 c -1.45,-1.22 -3.14,-1.83 -5.06,-1.83 -2.931,0 -5.08,1.11 -6.45,3.32 -1.37,2.22 -2.061,4.96 -2.061,8.25 0,3.54 0.7,6.37 2.09,8.49 1.4,2.12 3.511,3.18 6.351,3.18 2.83,0 4.99,-1.06 6.47,-3.17 1.47,-2.109 2.21,-4.84 2.21,-8.189 0,-4.681 -1.18,-8.041 -3.55,-10.051 z m -23.84,12.3 h -25.181 c 0.15,3.85 1.49,6.54 4.011,8.09 1.529,0.96 3.37,1.439 5.52,1.439 2.28,0 4.141,-0.59 5.561,-1.76 0.779,-0.63 1.47,-1.51 2.069,-2.63 h 8.88 c -0.45,-1.599 -0.751,-3.309 -0.86,-5.139 z m -10.34,-12.66 c -1.601,-1.38 -3.58,-2.07 -5.95,-2.07 -2.57,0 -4.561,0.73 -5.98,2.19 -1.41,1.46 -2.3,3.44 -2.67,5.93 h 17.271 c -0.191,-2.66 -1.081,-4.68 -2.671,-6.05 z m 37.87,23.7 c -1.431,2.279 -3.061,3.93 -4.891,4.96 -1.82,1.029 -4.1,1.55 -6.82,1.55 -4.47,0 -8.239,-1.82 -11.3,-5.44 -1.21,-1.43 -2.17,-3.029 -2.899,-4.79 -0.61,1.561 -1.63,3.141 -3.13,4.74 -3.431,3.73 -8.24,5.59 -14.421,5.59 -5.1,0 -9.6,-1.57 -13.489,-4.71 -3.9,-3.149 -5.851,-8.26 -5.851,-15.35 0,-6.63 1.761,-11.72 5.28,-15.271 3.52,-3.54 8.08,-5.31 13.7,-5.31 3.34,0 6.34,0.6 9.01,1.8 2.68,1.19 4.88,3.08 6.62,5.66 0.84,1.22 1.51,2.54 2.04,3.95 0.74,-2.15 1.76,-4.05 3.07,-5.68 3.01,-3.75 7.04,-5.62 12.08,-5.62 2.319,0 4.38,0.51 6.189,1.52 1.8,1.02 3.26,2.44 4.39,4.24 v -18.28 h 10.16 V 417 h -9.739 v -5.31 l 10e-4,0 z m 37.39,-22.66 c -1.57,-2.07 -3.82,-3.11 -6.75,-3.11 -2.93,0 -5.19,1.04 -6.771,3.11 -1.58,2.07 -2.369,5.02 -2.369,8.86 0,3.841 0.789,6.801 2.369,8.88 1.58,2.091 3.841,3.131 6.771,3.131 2.93,0 5.18,-1.04 6.75,-3.131 1.57,-2.079 2.35,-5.039 2.35,-8.88 0,-3.84 -0.78,-6.79 -2.35,-8.86 z m 8.01,23.28 c -3.229,3.99 -8.14,5.99 -14.729,5.99 -6.58,0 -11.49,-2 -14.73,-5.99 -3.229,-3.989 -4.85,-8.8 -4.85,-14.42 0,-5.52 1.62,-10.31 4.85,-14.36 3.24,-4.05 8.15,-6.08 14.73,-6.08 6.59,0 11.5,2.03 14.729,6.08 3.24,4.05 4.851,8.84 4.851,14.36 -10e-4,5.62 -1.611,10.43 -4.851,14.42 z"
   id="path3033" />
</svg>