<?xml version="1.0" encoding="utf-8"?>
<!-- Generator: Adobe Illustrator 15.1.0, SVG Export Plug-In . SVG Version: 6.00 Build 0)  -->
<!DOCTYPE svg PUBLIC "-//W3C//DTD SVG 1.1//EN" "http://www.w3.org/Graphics/SVG/1.1/DTD/svg11.dtd">
<svg version="1.1" id="Layer_1" xmlns="http://www.w3.org/2000/svg" xmlns:xlink="http://www.w3.org/1999/xlink" x="0px" y="0px"
	 width="472px" height="95px" viewBox="69.5 349.5 472 95" enable-background="new 69.5 349.5 472 95" xml:space="preserve">
<path d="M104.78,372.02l-8.26,22.82h16.21L104.78,372.02z M120.11,416l-5.39-15.47H94.46L88.85,416h-7.17l19.45-51.64h7.899
	L127.77,416H120.11z M150.05,386.63c-1.94-2.29-4.33-3.43-7.17-3.43c-3.18,0-5.75,1.22-7.72,3.66c-1.971,2.43-2.95,6.02-2.95,10.75
	c0,4.029,0.85,7.409,2.55,10.13c1.7,2.72,4.43,4.08,8.19,4.08c2.909,0,5.31-1.261,7.18-3.78c1.88-2.521,2.82-6.14,2.82-10.85
	C152.95,392.43,151.98,388.91,150.05,386.63z M153.09,410.76c-1.47,2.32-3.21,4-5.22,5.03c-2.011,1.03-4.311,1.55-6.9,1.55
	c-4.18,0-7.8-1.77-10.85-5.3c-3.061-3.521-4.591-8.22-4.591-14.08c0-5.48,1.391-10.23,4.181-14.25s6.779-6.03,11.96-6.03
	c2.87,0,5.28,0.61,7.22,1.83c1.12,0.7,2.39,1.93,3.811,3.69v-19.02h6.09V416h-5.7V410.76z M180.66,384.22
	c-0.32-0.02-0.67-0.04-1.04-0.04c-3.19,0-5.641,1.03-7.351,3.08c-1.71,2.05-2.56,4.41-2.56,7.08V416h-6.33v-37.65h6.01v6.5
	c0.49-1.26,1.7-2.8,3.62-4.62s4.14-2.73,6.65-2.73c0.109,0,0.31,0.02,0.59,0.04l1.439,0.14v6.68
	C181.32,384.29,180.97,384.24,180.66,384.22z M182.14,364.36h6.43v7.17h-6.43V364.36z M182.14,378.52h6.43V416h-6.43V378.52z
	 M216.44,396.859c-0.77,0.501-1.77,0.91-2.979,1.24c-1.22,0.33-2.41,0.561-3.58,0.7l-3.83,0.49c-2.29,0.31-4.01,0.79-5.17,1.44
	c-1.96,1.1-2.93,2.859-2.93,5.26c0,1.83,0.659,3.27,2,4.319c1.34,1.051,2.92,1.58,4.75,1.58c2.22,0,4.38-0.52,6.46-1.55
	c3.52-1.71,5.279-4.5,5.279-8.39V396.859L216.44,396.859z M222.59,416.81c-2.18,0-3.76-0.77-4.75-2.319
	c-0.51-0.82-0.87-1.98-1.09-3.48c-1.28,1.69-3.141,3.15-5.55,4.391c-2.41,1.239-5.07,1.869-7.98,1.869c-3.49,0-6.35-1.06-8.56-3.18
	c-2.221-2.12-3.32-4.77-3.32-7.96c0-3.479,1.09-6.189,3.27-8.11c2.181-1.919,5.04-3.1,8.57-3.54l10.09-1.27
	c1.46-0.18,2.431-0.79,2.92-1.82c0.28-0.57,0.42-1.38,0.42-2.44c0-2.16-0.76-3.73-2.29-4.71c-1.54-0.97-3.729-1.46-6.58-1.46
	c-3.3,0-5.64,0.89-7.02,2.68c-0.77,0.99-1.27,2.46-1.51,4.42h-5.9c0.11-4.65,1.62-7.89,4.51-9.71c2.891-1.83,6.24-2.74,10.061-2.74
	c4.42,0,8.02,0.85,10.78,2.53c2.739,1.69,4.109,4.32,4.109,7.88v21.69c0,0.66,0.13,1.189,0.4,1.58c0.27,0.399,0.84,0.6,1.71,0.6
	c0.28,0,0.59-0.02,0.95-0.05c0.35-0.04,0.72-0.09,1.12-0.16v4.68c-0.98,0.28-1.73,0.45-2.25,0.521
	C224.18,416.77,223.48,416.81,222.59,416.81z M252.36,392.27c0-2.3-0.34-4.15-1.02-5.56c-1.13-2.34-3.17-3.51-6.12-3.51
	c-1.5,0-2.729,0.15-3.69,0.46c-1.739,0.51-3.26,1.54-4.569,3.09c-1.061,1.24-1.74,2.53-2.061,3.85c-0.319,1.32-0.47,3.22-0.47,5.68
	V416h-6.33v-37.65h6.01v5.34c1.78-2.2,3.67-3.78,5.66-4.74c1.99-0.97,4.21-1.45,6.641-1.45c5.35,0,8.96,1.87,10.829,5.59
	c1.03,2.04,1.551,4.96,1.551,8.76V416h-6.431V392.27L252.36,392.27z M296.66,377.54c-2.381-3.18-5.86-4.77-10.431-4.77
	c-4.29,0-7.71,1.53-10.26,4.57c-2.56,3.05-3.84,7.61-3.84,13.68c0,4.57,0.76,8.29,2.28,11.19l0.119-0.03l0.16-0.319l0.09,0.02
	l0.141-0.24l0.189-0.05l0.15-0.32l0.19-0.05l0.04-0.17l0.189-0.05l0.03-0.17l0.3-0.12l0.03-0.17l0.189-0.05l0.04-0.17l0.29-0.11
	l0.04-0.17l0.19-0.05l0.029-0.17l0.301-0.12l0.029-0.17l0.4-0.181l0.03-0.17l0.399-0.189l0.04-0.17l0.5-0.25l0.03-0.17l1.229-0.721
	l1.36-0.96l0.17,0.04l0.33-0.29l0.17,0.04l0.33-0.29l0.17,0.04l0.12-0.15l0.28-0.03l0.02-0.09l0.17,0.04l0.12-0.15l0.17,0.03
	l0.12-0.15l0.55-0.06l0.12-0.15l0.36-0.02l0.02-0.08l0.36-0.01l0.02-0.09l0.25,0.05l0.021-0.08l0.17,0.04l0.02-0.09l0.261,0.06
	l0.01-0.09l0.17,0.04l0.021-0.09l0.529,0.03l0.021-0.09l0.7,0.06c0.81-0.08,3.149,0.2,4.05,0.69l2.17,1.09l-0.01,0.08l0.17,0.04
	l-0.021,0.08l0.49,0.2l-0.021,0.08l0.181,0.04l-0.021,0.09l0.25,0.05l-0.02,0.09l0.479,0.28l-0.02,0.08l0.17,0.04l-0.02,0.08
	l0.26,0.06l-0.021,0.08l0.33,0.16l-0.02,0.09l0.17,0.03l0.05,0.189l0.17,0.04l-0.02,0.08l0.17,0.04l-0.021,0.09l0.17,0.03
	l-0.02,0.09l0.17,0.03l-0.01,0.09l0.17,0.04l0.05,0.18l0.17,0.04l-0.02,0.091l0.319,0.149l-0.02,0.09l0.24,0.141l0.05,0.189
	l0.32,0.16l0.05,0.19l0.17,0.029l0.05,0.19l0.17,0.04l-0.02,0.08l0.239,0.14l0.051,0.19h0.01c0.609-1.33,1.06-2.53,1.33-3.58
	c0.52-1.9,0.77-4.11,0.77-6.64C300.22,385.21,299.03,380.71,296.66,377.54z M277.62,406.28c2.369,1.989,5.21,2.989,8.51,2.989
	c1.24,0,2.439-0.159,3.59-0.46c0.37-0.1,0.81-0.25,1.31-0.43l-0.3-0.149l-0.05-0.19l-0.32-0.16l-0.05-0.189l-0.479-0.28l-0.051-0.19
	l-0.17-0.029l0.021-0.091l-0.17-0.029l0.02-0.09l-0.17-0.04l0.021-0.08l-0.181-0.04l0.021-0.08l-0.32-0.16l0.021-0.09l-0.171-0.03
	l0.021-0.09l-0.17-0.03l0.01-0.09l-0.17-0.04l0.02-0.08l-0.17-0.04l0.021-0.08l-0.17-0.04l0.02-0.09l-0.33-0.149l0.021-0.091
	l-0.17-0.04l0.02-0.079l-0.26-0.061l0.02-0.08l-0.319-0.16l0.02-0.08l-0.26-0.06l0.02-0.08l-0.17-0.04l0.021-0.09l-0.5-0.19
	l0.02-0.09l-0.26-0.05l0.02-0.09l-0.25-0.05l0.021-0.09l-0.26-0.051l0.02-0.09l-0.26-0.05l0.02-0.09l-0.26-0.05l0.021-0.09
	l-0.341-0.07l0.021-0.08l-0.75-0.25l0.02-0.09l-0.43-0.09l0.02-0.091l-1.35-0.369l0.021-0.091c-0.4-0.21-1.65-0.35-1.98-0.329
	l-0.77-0.171c-0.73,0.061-1.58,0.03-2.261,0.15l-0.26-0.06l-0.01,0.09l-0.45-0.011l-0.02,0.091l-0.36,0.01l-0.01,0.08l-0.261-0.05
	l-0.02,0.08l-0.55,0.069l-0.021,0.08l-0.35,0.01l-0.12,0.15C275.59,404.24,276.52,405.35,277.62,406.28z M312.68,417.38l0.17,0.04
	l-0.01,0.08l0.17,0.04l-0.021,0.09l0.17,0.03l-0.02,0.09l0.479,0.28l-0.02,0.08l0.25,0.06l-0.01,0.08l0.319,0.16l-0.02,0.09
	l0.26,0.05l-0.02,0.09l0.17,0.03l-0.021,0.09l0.5,0.19l-0.02,0.09l0.25,0.05l-0.021,0.09l0.261,0.05l-0.021,0.091l0.26,0.05
	l-0.02,0.09l0.26,0.05l-0.02,0.09l0.66,0.23c1.909,1.13,4.909,1.53,6.88,1.2l0.529,0.029l0.021-0.09l0.17,0.04l0.02-0.09l0.261,0.06
	l0.01-0.09l0.55-0.06l0.021-0.09l0.17,0.04l0.02-0.08l0.17,0.029l0.021-0.079l0.17,0.029l0.02-0.08l0.17,0.03l0.021-0.08l0.17,0.04
	l0.02-0.09l0.171,0.04l0.119-0.16l0.36-0.01l0.02-0.08l0.271-0.03l0.12-0.16l0.17,0.04l0.12-0.149l0.17,0.029l0.229-0.22l0.171,0.04
	l0.229-0.22l0.17,0.04l0.22-0.22l0.171,0.04l0.119-0.16c0.19-0.11,0.37-0.181,0.591-0.23l-0.04,0.17c-0.25,0.15-0.28,0.4-0.48,0.61
	l-0.189,0.05l-0.04,0.17l-0.08-0.02l-0.04,0.17l-0.09-0.021l-0.03,0.181l-0.19,0.04l-0.16,0.33l-0.189,0.05l-0.04,0.17l-0.08-0.021
	l-0.04,0.17l-0.19,0.051l-0.029,0.17l-0.19,0.05l-0.04,0.17l-0.189,0.05l-0.16,0.32l-0.08-0.021l-0.141,0.24l-0.189,0.05l-0.04,0.17
	l-0.29,0.12l-0.03,0.17l-0.09-0.02l-0.14,0.24l-0.19,0.04l-0.04,0.18l-0.29,0.11l-0.029,0.17l-0.301,0.12l-0.029,0.17l-0.4,0.18
	l-0.04,0.17l-0.29,0.12l-0.14,0.24l-0.601,0.31l-0.04,0.17l-1.22,0.72l-0.85,0.631l-0.17-0.04l-0.431,0.35l-0.17-0.03l-0.33,0.28
	l-0.17-0.03L320,426.98l-0.17-0.04l-0.12,0.149l-0.271,0.03l-0.02,0.09l-0.17-0.04l-0.12,0.15l-0.55,0.069l-0.131,0.15l-0.35,0.01
	l-0.02,0.09l-0.551,0.061l-0.02,0.08l-0.26-0.05l-0.011,0.08l-0.17-0.03l-0.02,0.08l-0.26-0.05l-0.021,0.079l-0.17-0.029l-0.02,0.08
	l-0.891-0.011c-1.87,0.21-4.37-0.42-5.95-1.359l-0.34-0.08l0.021-0.08l-0.261-0.061l0.021-0.079l-0.26-0.061l0.02-0.08l-0.25-0.06
	l0.01-0.08l-0.25-0.061l0.021-0.079l-0.5-0.2l0.02-0.08l-0.17-0.04l0.021-0.08l-0.261-0.06l0.021-0.08l-0.17-0.04l0.02-0.08
	l-0.26-0.061l0.02-0.08l-0.479-0.279l0.02-0.091l-0.17-0.039l0.021-0.08l-0.17-0.04l0.02-0.08l-0.33-0.16l0.021-0.09l-0.25-0.05
	l-0.05-0.19l-0.17-0.04l0.02-0.08l-0.17-0.04l0.01-0.08l-0.17-0.04l0.021-0.09l-0.17-0.03l0.02-0.09l-0.17-0.029l0.02-0.091
	l-0.17-0.04l-0.05-0.189l-0.17-0.03l0.01-0.09l-0.319-0.16l-0.051-0.18l-0.319-0.16l-0.05-0.19l-0.171-0.04l-0.05-0.189l-0.17-0.03
	l0.021-0.09l-0.17-0.03l-0.051-0.189l-0.17-0.04l-0.05-0.19l-0.17-0.04l-0.05-0.18l-0.32-0.16l0.01-0.09l-0.229-0.14l-0.05-0.19
	l-0.17-0.03l-0.051-0.189l-0.17-0.04l-0.12-0.29l-0.17-0.04l0.021-0.08l-0.24-0.14l-0.05-0.19l-0.17-0.04l-0.11-0.29l-0.17-0.04
	l0.01-0.08l-0.229-0.14l-0.05-0.19l-0.171-0.04l-0.05-0.189l-0.239-0.141l-0.12-0.29l-0.17-0.04l-0.051-0.18L299.7,418l-0.11-0.29
	l-0.17-0.04l-0.12-0.29l-0.17-0.04l-0.12-0.29l-0.17-0.04l-0.11-0.29l-0.17-0.04l-0.05-0.189l-0.17-0.03l-0.12-0.29l-0.17-0.04
	l-0.11-0.29l-0.18-0.04v-0.01c-1.21,0.66-2.31,1.16-3.27,1.49c-2.32,0.77-5.101,1.159-8.341,1.159c-6.76,0-12.34-2.01-16.75-6.05
	c-5.35-4.85-8.02-11.97-8.02-21.37c0-9.47,2.74-16.63,8.22-21.48c4.48-3.96,10.05-5.94,16.7-5.94c6.71,0,12.33,2.1,16.88,6.29
	c5.25,4.85,7.87,11.64,7.87,20.36c0,4.61-0.561,8.479-1.69,11.6c-0.91,2.971-2.25,5.44-4.02,7.4l5.939,5.609l-0.649,0.671
	l0.02,0.079l0.33,0.16l0.05,0.19l0.32,0.16l0.05,0.18l0.47,0.28l0.051,0.189l0.17,0.04l-0.021,0.08l0.17,0.04l-0.01,0.09l0.17,0.03
	l-0.02,0.09l0.17,0.03l-0.021,0.09l0.17,0.04L312.68,417.38z M337.61,411.59c-0.09,0.11-0.33,0.47-0.7,1.05
	c-0.38,0.591-0.819,1.101-1.33,1.551c-1.569,1.399-3.079,2.369-4.54,2.88c-1.46,0.52-3.18,0.77-5.14,0.77
	c-5.66,0-9.47-2.04-11.43-6.109c-1.101-2.25-1.65-5.57-1.65-9.95v-23.1h10.271v23.1c0,2.18,0.26,3.819,0.77,4.92
	c0.91,1.939,2.69,2.92,5.35,2.92c3.41,0,5.74-1.39,7-4.15c0.65-1.5,0.98-3.479,0.98-5.939v-20.85h10.16V417h-9.74V411.59z
	 M373.59,387.99c-1.601-1.38-3.58-2.07-5.94-2.07c-2.57,0-4.57,0.73-5.979,2.19c-1.421,1.46-2.311,3.44-2.671,5.93h17.261
	C376.079,391.38,375.19,389.36,373.59,387.99z M386.329,393.05c0.271,1.76,0.381,4.29,0.33,7.601h-27.91
	c0.16,3.85,1.49,6.54,4.011,8.09c1.529,0.96,3.37,1.439,5.52,1.439c2.29,0,4.141-0.59,5.57-1.76c0.78-0.63,1.46-1.51,2.06-2.63
	h10.23c-0.271,2.27-1.51,4.58-3.72,6.92c-3.431,3.73-8.23,5.59-14.41,5.59c-5.101,0-9.601-1.569-13.5-4.71
	c-3.9-3.149-5.851-8.26-5.851-15.35c0-6.63,1.761-11.72,5.28-15.27c3.52-3.54,8.09-5.31,13.7-5.31c3.34,0,6.34,0.6,9.02,1.8
	c2.67,1.19,4.88,3.08,6.62,5.66C384.85,387.4,385.869,390.04,386.329,393.05z M396.289,417l-13.739-38.32h11.25l7.979,28.27
	l8.16-28.27h10.75L406.86,417H396.289z M477.06,388.35c-1.45-1.22-3.14-1.83-5.06-1.83c-2.931,0-5.08,1.11-6.45,3.32
	c-1.37,2.22-2.061,4.96-2.061,8.25c0,3.54,0.7,6.37,2.09,8.49c1.4,2.12,3.511,3.18,6.351,3.18c2.83,0,4.99-1.06,6.47-3.17
	c1.47-2.109,2.21-4.84,2.21-8.189C480.61,393.72,479.43,390.36,477.06,388.35z M453.22,400.65h-25.181
	c0.15,3.85,1.49,6.54,4.011,8.09c1.529,0.96,3.37,1.439,5.52,1.439c2.28,0,4.141-0.59,5.561-1.76c0.779-0.63,1.47-1.51,2.069-2.63
	h8.88C453.63,404.19,453.329,402.48,453.22,400.65z M442.88,387.99c-1.601-1.38-3.58-2.07-5.95-2.07c-2.57,0-4.561,0.73-5.98,2.19
	c-1.41,1.46-2.3,3.44-2.67,5.93h17.271C445.36,391.38,444.47,389.36,442.88,387.99z M480.75,411.69
	c-1.431,2.279-3.061,3.93-4.891,4.96c-1.82,1.029-4.1,1.55-6.82,1.55c-4.47,0-8.239-1.82-11.3-5.44
	c-1.21-1.43-2.17-3.029-2.899-4.79c-0.61,1.561-1.63,3.141-3.13,4.74c-3.431,3.73-8.24,5.59-14.421,5.59
	c-5.1,0-9.6-1.57-13.489-4.71c-3.9-3.149-5.851-8.26-5.851-15.35c0-6.63,1.761-11.72,5.28-15.271c3.52-3.54,8.08-5.31,13.7-5.31
	c3.34,0,6.34,0.6,9.01,1.8c2.68,1.19,4.88,3.08,6.62,5.66c0.84,1.22,1.51,2.54,2.04,3.95c0.74-2.15,1.76-4.05,3.07-5.68
	c3.01-3.75,7.04-5.62,12.08-5.62c2.319,0,4.38,0.51,6.189,1.52c1.8,1.02,3.26,2.44,4.39,4.24v-18.28h10.16V417h-9.739V411.69
	L480.75,411.69z M518.14,389.03c-1.57-2.07-3.82-3.11-6.75-3.11s-5.19,1.04-6.771,3.11c-1.58,2.07-2.369,5.02-2.369,8.86
	c0,3.841,0.789,6.801,2.369,8.88c1.58,2.091,3.841,3.131,6.771,3.131s5.18-1.04,6.75-3.131c1.57-2.079,2.35-5.039,2.35-8.88
	C520.49,394.05,519.71,391.1,518.14,389.03z M526.15,412.31c-3.229,3.99-8.14,5.99-14.729,5.99c-6.58,0-11.49-2-14.73-5.99
	c-3.229-3.989-4.85-8.8-4.85-14.42c0-5.52,1.62-10.31,4.85-14.36c3.24-4.05,8.15-6.08,14.73-6.08c6.59,0,11.5,2.03,14.729,6.08
	c3.24,4.05,4.851,8.84,4.851,14.36C531,403.51,529.39,408.32,526.15,412.31z"/>
</svg>
